# xmcd
#
# Track frame offsets: 
#        150
#        17430
#        31606
#        47524
#        61958
#        78677
#        92343
#        109587
#        128667
#        143854
#        156625
#        168963
#        183282
#        198806
#        214447
#
# Disc length: 3065 seconds
#
# Revision: 0
# Processed by: cddbd v1.5.2PL0 Copyright (c) Steve Scherf et al.
# Submitted via: ExactAudioCopyFreeDBPlugin 1.0
#
DISCID=bd0bf70f
DTITLE=Nick Woodland - Street Level
DYEAR=2016
DGENRE=Blues
TTITLE0=Feet on the ground
TTITLE1=Electricity
TTITLE2=Don't wanna know why
TTITLE3=Bikes for Joey
TTITLE4=Once in a lifetime
TTITLE5=Street Level 1 (Karachi High Street)
TTITLE6=That train
TTITLE7=What you gonna do
TTITLE8=Architect
TTITLE9=Hard word to say
TTITLE10=Somebody in Switzerland
TTITLE11=Street Level 2 (South Michigan Avenue)
TTITLE12=No talking back
TTITLE13=Work
TTITLE14=Street level 3 (Knickerbocker Avenue)
EXTD=
EXTT0=
EXTT1=
EXTT2=
EXTT3=
EXTT4=
EXTT5=
EXTT6=
EXTT7=
EXTT8=
EXTT9=
EXTT10=
EXTT11=
EXTT12=
EXTT13=
EXTT14=
PLAYORDER=
